<svg xmlns="http://www.w3.org/2000/svg" width="100" height="100"><path fill="#1F4FCD" d="M83.188 13.25c9.712 9.496 15.86 22.175 16.062 35.813C99.106 61.847 95.06 74.616 86 84h-2v2C72.485 96.114 59.02 99.943 44 99c-7.193-1.181-13.728-3.279-20-7l-1.82-1.074C20.5 89.875 20.5 89.875 18 88v-2l-1.766-.687C13.388 83.64 12.1 81.72 10.25 79l-1.86-2.687C7 74 7 74 7 72l-2-1C-.602 57.037-.729 42.98 5 29c2.063-3.586 4.406-6.784 7-10l1.813-2.687c19.766-20.897 47.5-18.504 69.375-3.063"/><path fill="#D9E1F6" d="M64 50h27v3c-2.882.96-4.699 1.106-7.687 1.063l-2.45-.028L79 54v2l3.25.438c2.667.4 5.164.838 7.75 1.562v2a639 639 0 0 1-7-1l-2.89-.406C74.274 57.714 69.285 56.643 64 54z"/><path fill="#D3DCF5" d="M38 11c2 1 2 1 3.035 3.688L42.063 18c.934 3.794.934 3.794 2.937 7 .234 2.016.413 4.038.563 6.063l.253 3.347L46 37h-4l-.594-1.547c-2.547-6.193-5.962-11.47-9.797-16.95C30 16 30 16 30 14c1.75.125 1.75.125 4 1a125 125 0 0 1 4 6l2 1-1-2.125c-1.09-3.135-1.153-5.58-1-8.875"/><path fill="#E4EAF9" d="m70 15 3 1-.937 2.188C71.074 20.803 70.47 23.25 70 26l1.242-1.312L72.875 23l1.617-1.687C76 20 76 20 78 20c-3.133 6.93-9.787 14.352-16.187 18.375L60 39l-2-1c.647-3.368 1.939-5.789 3.75-8.687 2.89-4.7 5.607-9.471 8.25-14.313"/><path fill="#DFE6F8" d="M56 63c3.554 3.196 5.83 6.798 8.125 10.938l1.05 1.841C67.05 79.106 68.682 82.416 70 86c-1.75-.125-1.75-.125-4-1a125 125 0 0 1-4-6l-2-1 1 2.125c1.09 3.135 1.153 5.58 1 8.875-2.328-2.328-2.65-3.795-3.5-6.937-.882-3.256-1.598-5.21-3.5-8.063-.414-2.48-.414-2.48-.625-5.187l-.227-2.731L54 64z"/><path fill="#E2E8F9" d="M10 40c4.111-.187 6.387.19 10 2q2.454.573 4.938 1c3.563.663 6.757 1.458 10.062 3v4H9v-3l2.371-.148 3.066-.227c1.01-.07 2.02-.14 3.06-.21L20 46l1-2-3.25-.437c-2.667-.4-5.164-.839-7.75-1.563z"/><path fill="#E6ECFA" d="m39 61 3 1c-1.394 3.835-3.193 7.035-5.437 10.438C34.113 76.214 31.878 79.913 30 84h-3c1.213-3.724 2.509-7.378 4-11l-2.25 2.375C26.456 77.565 24.878 78.827 22 80c3.341-7.236 10.191-14.915 17-19"/><path fill="#DEE5F8" d="m89 37 1 4c-8.26 3.899-15.921 6.019-25 7v-3l2.813-.687c4.457-1.258 8.552-3.224 12.734-5.192C83.547 37.751 85.678 37 89 37"/><path fill="#F8F9FD" d="M45 64c1.385 4.154.687 7.641.188 11.938l-.252 2.458-.268 2.381-.241 2.164C43.956 85.213 43.117 86.976 42 89l-2-2-2 2c.3-8.443 1.507-16.237 5-24z"/><path fill="#DEE5F8" d="m35 52 1 2a1694 1694 0 0 1-8.625 3.438l-2.45.986C20.62 60.122 16.638 61.467 12 62l-2-4c5.3-1.803 10.6-3.517 16-5l2.125-.625c2.318-.464 4.517-.44 6.875-.375"/><path fill="#E2E8F9" d="M57 11h2l1 2 2-2c-.367 7.483-1.271 14.014-4 21l-1 3-3 1q.21-3.22.438-6.437c.08-1.195.162-2.39.246-3.622C55 23 55 23 56 22c.234-1.849.413-3.705.563-5.562l.253-3.067z"/><path fill="#E6EBF9" d="M22 20c4.691 3.387 9.004 6.788 13 11l2.813 2.625C40 36 40 36 40 39c-3.37-1.514-6.016-3.484-8.875-5.812l-2.64-2.145A944 944 0 0 1 20 24l3-1z"/><path fill="#E3E9F9" d="M60 61c3.846 1.646 6.842 4.194 10 6.875l1.578 1.316C74.526 71.67 77.323 74.232 80 77h-3v3c-5.9-4.045-10.433-8.52-15-14l-2-2z"/><path fill="#D3DDF5" d="M49 65h2c1.052 8.657 1.94 17.422 0 26h-2c-1.86-8.606-1.135-17.346 0-26"/><path fill="#DFE6F8" d="M63 57c8.303 2.286 17.052 5.61 22 13-6.244-.838-10.335-2.541-15.203-6.543C67.883 61.83 67.883 61.83 65 60.25L63 59z"/><path fill="#EBF0FB" d="M37 57c-1.148 3.445-1.681 3.691-4.687 5.438-2.556 1.51-4.953 3.02-7.376 4.75-3.345 2.064-6.136 2.9-9.937 3.812l1-3h2l1-3c1.672-1.098 1.672-1.098 3.75-2.062l2.184-1.028C27.267 60.882 29.633 59.947 32 59c3-2 3-2 5-2"/><path fill="#D9E1F7" d="M49 10c2.549 2.944 3.378 4.67 3.25 8.563l-.078 2.62A307 307 0 0 1 51 35h-2c-2.306-17.295-2.306-17.295 0-25"/><path fill="#DDE4F7" d="M84 29v3c-5.909 5.238-13.577 8.526-21 11 1.184-3.552 2.05-3.973 5.125-5.937.81-.519 1.622-1.037 2.457-1.57L73 34l2.012-1.242C77.935 31.02 80.617 29.54 84 29"/><path fill="#DBE3F7" d="M15 30c6.846.978 10.715 2.837 15.957 7.344C32.901 38.92 34.726 39.978 37 41v2l-2.113-.852a358 358 0 0 0-5.93-2.296l-3.145-1.227c-1.045-.4-2.09-.8-3.167-1.21C19.699 35.838 19.283 34.954 18 32l-3-1z"/><path fill="#2B58D0" d="M48 26h1v9h2v-5l1 2h2l1 5c-6.625 3.125-6.625 3.125-10 2l1-4h2z"/><path fill="#325ED2" d="M30 40c2.352.599 4.686 1.27 7 2l1 2h-2v6l-1-4c-5.026-1.57-9.761-2.449-15-3v-1c.957-.09.957-.09 1.934-.184l2.503-.254c.824-.08 1.648-.162 2.497-.246 2.053-.105 2.053-.105 3.066-1.316"/><path fill="#BDCBF1" d="M56 63c3.483 3.019 4.792 5.57 6 10-1.937-.375-1.937-.375-4-1l-1-2-2 4-1-10z"/><path fill="#B9C8F0" d="m64 50 14 1c-4.177 3.133-5.947 3.633-11 4l-3-1z"/><path fill="#0E41CA" d="M57 36v2c-6.333 3.289-11.874 4.702-19 5v-3l2.875.25c4.433.036 7.985-1.61 11.988-3.375C55 36 55 36 57 36"/><path fill="#D1DBF5" d="M35 46v4l-14-1c9.2-4.6 9.2-4.6 14-3"/><path fill="#B1C2EE" d="M39 77h1v6h3v-6h1c.286 8.571.286 8.571-2 12l-2-2-2 2z"/><path fill="#2F5CD1" d="M35 54v4c-1.75 1.75-1.75 1.75-4 3h-4c.188-2.375.188-2.375 1-5 2.458-1.323 4.206-2 7-2"/><path fill="#C0CDF1" d="M78 20c-1.364 2.992-2.95 5.29-5.125 7.75l-1.633 1.86L70 31c-2-2-2-2-2.125-4.625L68 24l2 2 1.242-1.312L72.875 23l1.617-1.687C76 20 76 20 78 20"/><path fill="#D3DCF5" d="m74 33 2 1-2 2 1 2q-2.155.971-4.312 1.938l-2.426 1.09C66 42 66 42 63 43c1.216-3.648 2.314-4.119 5.5-6.125 2.903-1.743 2.903-1.743 5.5-3.875"/><path fill="#C2CFF2" d="M30 69c2 2 2 2 2.125 4.625L32 76l-1-3-2.25 2.375C26.456 77.565 24.878 78.827 22 80c1.364-2.992 2.95-5.29 5.125-7.75l1.633-1.86z"/><path fill="#C3CFF2" d="M10 40c5.42-.407 9.07.96 14 3l-3 3v-2l-3.25-.437c-2.667-.4-5.164-.839-7.75-1.563z"/><path fill="#D0DAF5" d="M45 64c1.032 3.095.975 4.526.563 7.688l-.31 2.449L45 76l-2-4-2 3c1.217-7.652 1.217-7.652 2-10z"/><path fill="#BECCF1" d="M38 11c2 1 2 1 3.188 3.75.823 3.294.756 5.04-.188 8.25l-2-1c-.414-2.504-.414-2.504-.625-5.562l-.227-3.067z"/><path fill="#DDE5F8" d="M30 14c2.798.386 3.82.801 5.75 2.938C37 19 37 19 37 21l-3 1c-4-5.75-4-5.75-4-8"/><path fill="#3963D3" d="m42 62 1 2 2 1h-2v4c-2.375 1.813-2.375 1.813-5 3l-2-1z"/><path fill="#CAD6F4" d="m22 63 2 1-3 3 1 2-7 2 1-3h2l1-3z"/><path fill="#C4D0F2" d="M55 23h1l.438 3.375c.346 3.446.346 3.446 1.562 5.625l-1 3-3 1z"/><path fill="#BDCBF1" d="M80 56c3.377.537 6.697 1.11 10 2v2c-3.47-.458-6.674-.891-10-2z"/><path fill="#A0B4EA" d="M63 31c1.033 3.1 1.178 4.056 0 7l-3 1-2-1 1-3 1 1z"/><path fill="#CFD9F5" d="m22 20 5 5-4 2-3-4h3z"/><path fill="#ABBDED" d="m39 61 3 1c-1.442 2.884-3.706 4.765-6 7-.187-2.875-.187-2.875 0-6z"/><path fill="#C5D2F3" d="M37 57c-1 3-1 3-2.75 4.188-2.55.92-4.56.961-7.25.812l1.75-.812c2.307-1.139 2.307-1.139 4.375-2.813C35 57 35 57 37 57"/><path fill="#AABCEC" d="M35 46v2h-9l1-2c3.284-.95 4.697-1.101 8 0"/><path fill="#99AEE9" d="m89 37 1 4-2 1c-3.736-1.472-3.736-1.472-5-4 3-1 3-1 6-1"/><path fill="#0E41CA" d="M79.813 23.688 82 24l-8 6-2-1c4.308-4.923 4.308-4.923 7.813-5.312"/><path fill="#B4C4EE" d="m63 57 9 3-4 2c-2.75-1.25-2.75-1.25-5-3z"/><path fill="#C5D1F2" d="m35 52 1 2c-3.695.95-6.305.95-10 0 3.135-1.858 5.375-2.201 9-2"/><path fill="#5277D9" d="m30 40 2 1-2 3-10-1v-1c.957-.09.957-.09 1.934-.184l2.503-.254c.824-.08 1.648-.162 2.497-.246 2.053-.105 2.053-.105 3.066-1.316"/><path fill="#CCD7F4" d="m40 28 2 1c.73 2.314 1.401 4.648 2 7-1.937-.687-1.937-.687-4-2-.812-2.562-.812-2.562-1-5z"/></svg>